<svg width="20" height="22" viewBox="0 0 20 22" fill="none" xmlns="http://www.w3.org/2000/svg">
<path fill-rule="evenodd" clip-rule="evenodd" d="M18.97 5.20158L10.72 0.687517C10.2719 0.439936 9.72807 0.439936 9.28 0.687517L1.03 5.20345C0.550138 5.46601 0.251242 5.96896 0.25 6.51595V15.4822C0.251242 16.0292 0.550138 16.5321 1.03 16.7947L9.28 21.3106C9.72807 21.5582 10.2719 21.5582 10.72 21.3106L18.97 16.7947C19.4499 16.5321 19.7488 16.0292 19.75 15.4822V6.51689C19.7498 5.96889 19.4507 5.46462 18.97 5.20158ZM10 2.00002L17.5328 6.12502L14.7409 7.6522L7.20813 3.5272L10 2.00002ZM10 10.25L2.46719 6.12502L5.64625 4.38408L13.1791 8.50908L10 10.25ZM18.25 15.486L10.75 19.5913V11.5466L13.75 9.90502V13.25C13.75 13.6642 14.0858 14 14.5 14C14.9142 14 15.25 13.6642 15.25 13.25V9.08377L18.25 7.4422V15.4822V15.486Z" fill="#113F67"/>
</svg>
